<svg width="49" height="48" viewBox="0 0 49 48" fill="none" xmlns="http://www.w3.org/2000/svg">
<path fill-rule="evenodd" clip-rule="evenodd" d="M9.66675 6C8.0099 6 6.66675 7.34315 6.66675 9V39C6.66675 40.6569 8.0099 42 9.66675 42H39.6667C41.3236 42 42.6667 40.6569 42.6667 39V9C42.6667 7.34315 41.3236 6 39.6667 6H9.66675ZM17.9167 11.9379C17.9167 11.3248 18.481 10.8675 19.0836 10.9803C23.2751 11.7644 26.0567 11.7738 30.2489 10.9829C30.8515 10.8692 31.4167 11.326 31.4167 11.9393C31.4167 12.4729 31.8493 12.9054 32.3829 12.9054H32.6667C33.219 12.9054 33.6667 13.3531 33.6667 13.9054V14.7794C33.6667 15.3316 33.219 15.7794 32.6667 15.7794H32.4167C31.8644 15.7794 31.4167 16.2271 31.4167 16.7794V17.1663C31.4167 17.6195 31.1107 18.0176 30.6711 18.1275C26.2055 19.2443 23.3433 19.2432 18.6731 18.122C18.2284 18.0153 17.9167 17.6147 17.9167 17.1574V16.7794C17.9167 16.2271 17.469 15.7794 16.9167 15.7794H16.6667C16.1144 15.7794 15.6667 15.3316 15.6667 14.7794V13.9054C15.6667 13.3531 16.1144 12.9054 16.6667 12.9054H16.9492C17.4835 12.9054 17.9167 12.4722 17.9167 11.9379ZM20.1667 12.7377C20.719 12.7377 21.1667 13.1854 21.1667 13.7377V15.9779C21.1667 16.5302 20.719 16.9779 20.1667 16.9779C19.6144 16.9779 19.1667 16.5302 19.1667 15.9779V13.7377C19.1667 13.1854 19.6144 12.7377 20.1667 12.7377ZM19.0836 19.9803C18.481 19.8675 17.9167 20.3248 17.9167 20.9379C17.9167 21.4722 17.4835 21.9054 16.9492 21.9054H16.6667C16.1144 21.9054 15.6667 22.3531 15.6667 22.9054V23.7794C15.6667 24.3316 16.1144 24.7794 16.6667 24.7794H16.9167C17.469 24.7794 17.9167 25.2271 17.9167 25.7794V26.1574C17.9167 26.6147 18.2284 27.0153 18.6731 27.122C23.3433 28.2432 26.2055 28.2443 30.6711 27.1275C31.1107 27.0176 31.4167 26.6195 31.4167 26.1663V25.7794C31.4167 25.2271 31.8644 24.7794 32.4167 24.7794H32.6667C33.219 24.7794 33.6667 24.3316 33.6667 23.7794V22.9054C33.6667 22.3531 33.219 21.9054 32.6667 21.9054H32.3829C31.8493 21.9054 31.4167 21.4729 31.4167 20.9393C31.4167 20.326 30.8515 19.8692 30.2489 19.9829C26.0567 20.7738 23.2751 20.7644 19.0836 19.9803ZM21.1667 22.7377C21.1667 22.1854 20.719 21.7377 20.1667 21.7377C19.6144 21.7377 19.1667 22.1854 19.1667 22.7377V24.9779C19.1667 25.5302 19.6144 25.9779 20.1667 25.9779C20.719 25.9779 21.1667 25.5302 21.1667 24.9779V22.7377ZM17.9167 29.9379C17.9167 29.3248 18.481 28.8675 19.0836 28.9803C23.2751 29.7644 26.0567 29.7738 30.2489 28.9829C30.8515 28.8692 31.4167 29.326 31.4167 29.9393C31.4167 30.4729 31.8493 30.9054 32.3829 30.9054H32.6667C33.219 30.9054 33.6667 31.3531 33.6667 31.9054V32.7794C33.6667 33.3316 33.219 33.7794 32.6667 33.7794H32.4167C31.8644 33.7794 31.4167 34.2271 31.4167 34.7794V35.1663C31.4167 35.6195 31.1107 36.0176 30.6711 36.1275C26.2055 37.2443 23.3433 37.2432 18.6731 36.122C18.2284 36.0153 17.9167 35.6147 17.9167 35.1574V34.7794C17.9167 34.2271 17.469 33.7794 16.9167 33.7794H16.6667C16.1144 33.7794 15.6667 33.3316 15.6667 32.7794V31.9054C15.6667 31.3531 16.1144 30.9054 16.6667 30.9054H16.9492C17.4835 30.9054 17.9167 30.4722 17.9167 29.9379ZM20.1667 30.7377C20.719 30.7377 21.1667 31.1854 21.1667 31.7377V33.9779C21.1667 34.5302 20.719 34.9779 20.1667 34.9779C19.6144 34.9779 19.1667 34.5302 19.1667 33.9779V31.7377C19.1667 31.1854 19.6144 30.7377 20.1667 30.7377Z" fill="#5D5D5D"/>
</svg>
