<svg width="49" height="48" viewBox="0 0 49 48" fill="none" xmlns="http://www.w3.org/2000/svg">
<path fill-rule="evenodd" clip-rule="evenodd" d="M9.66675 6C8.0099 6 6.66675 7.34315 6.66675 9V39C6.66675 40.6569 8.0099 42 9.66675 42H39.6667C41.3236 42 42.6667 40.6569 42.6667 39V9C42.6667 7.34315 41.3236 6 39.6667 6H9.66675ZM24.7062 15C31.4167 15 39.6667 24 39.6667 24C39.6667 24 31.4167 33 24.7062 33C17.9956 33 9.66675 24 9.66675 24C9.66675 24 17.9956 15 24.7062 15ZM12.4964 24C13.3438 23.1949 14.5236 22.1373 15.8904 21.0845C16.4065 20.687 16.9439 20.2942 17.4955 19.9184C16.809 21.122 16.4167 22.5152 16.4167 24C16.4167 25.4848 16.809 26.878 17.4955 28.0816C16.9439 27.7058 16.4065 27.313 15.8904 26.9155C14.5236 25.8627 13.3438 24.8051 12.4964 24ZM32.9167 24C32.9167 22.4918 32.512 21.0782 31.8053 19.8617C32.3806 20.2534 32.9408 20.6643 33.4772 21.0804C34.8372 22.1351 36.0094 23.1946 36.8497 24C36.0094 24.8053 34.8372 25.8649 33.4772 26.9196C32.9408 27.3357 32.3806 27.7466 31.8053 28.1383C32.512 26.9218 32.9167 25.5082 32.9167 24ZM24.6667 30.25C28.1185 30.25 30.9167 27.4518 30.9167 24C30.9167 20.5482 28.1185 17.75 24.6667 17.75C21.2149 17.75 18.4167 20.5482 18.4167 24C18.4167 27.4518 21.2149 30.25 24.6667 30.25ZM28.4167 24C28.4167 26.0711 26.7378 27.75 24.6667 27.75C22.5956 27.75 20.9167 26.0711 20.9167 24C20.9167 21.9289 22.5956 20.25 24.6667 20.25C25.5979 20.25 26.4498 20.5894 27.1055 21.1512C26.9397 21.0551 26.7471 21 26.5417 21C25.9204 21 25.4167 21.5037 25.4167 22.125C25.4167 22.7463 25.9204 23.25 26.5417 23.25C27.163 23.25 27.6667 22.7463 27.6667 22.125C27.6667 21.9196 27.6116 21.727 27.5155 21.5612C28.0773 22.2169 28.4167 23.0688 28.4167 24Z" fill="#5D5D5D"/>
</svg>
