<svg width="49" height="48" viewBox="0 0 49 48" fill="none" xmlns="http://www.w3.org/2000/svg">
<path fill-rule="evenodd" clip-rule="evenodd" d="M28.6667 10.0001H14.6667V37.0001H28.6667V10.0001ZM12.6667 8.00006V39.0001H30.6667V8.00006H12.6667Z" fill="#5D5D5D"/>
<path fill-rule="evenodd" clip-rule="evenodd" d="M22.9829 4.4388C22.3354 4.22296 21.6667 4.70493 21.6667 5.38748V42.6126C21.6667 43.2952 22.3354 43.7772 22.9829 43.5613L35.9829 39.228C36.3913 39.0919 36.6667 38.7097 36.6667 38.2793V9.72082C36.6667 9.29039 36.3913 8.90825 35.9829 8.77214L22.9829 4.4388ZM26.6667 25.0001C27.219 25.0001 27.6667 24.1046 27.6667 23.0001C27.6667 21.8955 27.219 21.0001 26.6667 21.0001C26.1144 21.0001 25.6667 21.8955 25.6667 23.0001C25.6667 24.1046 26.1144 25.0001 26.6667 25.0001Z" fill="#5D5D5D"/>
</svg>
