<svg width="49" height="48" viewBox="0 0 49 48" fill="none" xmlns="http://www.w3.org/2000/svg">
<path fill-rule="evenodd" clip-rule="evenodd" d="M17.983 10.7392V10.7405C18.0167 14.3482 18.4837 16.1167 19.4009 17.0618C20.2065 17.892 21.5646 18.2938 24.115 18.3692C24.3169 16.3334 25.1288 14.709 26.3219 13.5517C27.695 12.2198 29.5134 11.5652 31.3132 11.5652C33.1131 11.5652 34.9314 12.2198 36.3046 13.5517C37.6895 14.895 38.5607 16.8677 38.5607 19.3824V27.7146C38.5607 30.0693 38.1697 32.5607 36.9584 34.4946C35.7018 36.5007 33.6231 37.8043 30.5489 37.8043C27.3856 37.8043 25.1897 35.9216 23.2494 34.2475L23.1876 34.1941C21.2121 32.4895 19.4358 30.9566 16.9169 30.6086C15.8591 30.6197 15.1239 30.9033 14.5955 31.2903C14.047 31.6921 13.6533 32.2557 13.3748 32.9075C12.8055 34.2399 12.7867 35.7752 12.8142 36.4349C12.8197 36.5657 12.8225 37.983 12.8245 39.3149C12.8254 39.9926 12.8262 40.6637 12.8266 41.1653L12.8273 41.9984L11.8589 42H39.6667C41.3236 42 42.6667 40.6569 42.6667 39V9C42.6667 7.34315 41.3236 6 39.6667 6H17.981L17.9828 10.6698L17.9829 10.7198V10.7348L17.983 10.7392ZM9.66675 42H10.8273L10.8266 41.1672C10.8262 40.6657 10.8254 39.995 10.8245 39.3178C10.8235 38.6405 10.8222 37.9572 10.8207 37.4304C10.8199 37.1668 10.8191 36.9432 10.8181 36.7793C10.8177 36.6972 10.8172 36.6311 10.8167 36.5829L10.816 36.5229L10.8159 36.5171C10.8159 36.5164 10.8159 36.5168 10.816 36.5182C10.7848 35.7703 10.7879 33.8715 11.5357 32.1216C11.9157 31.2323 12.5044 30.3428 13.4137 29.6768C14.3327 29.0037 15.5121 28.6083 16.9809 28.6083C17.3757 28.6083 17.7408 28.6172 18.0878 28.6256C18.7197 28.6409 19.2917 28.6548 19.8749 28.6111C20.7262 28.5473 21.3953 28.3639 21.9395 27.956C22.966 27.1866 23.941 25.3012 24.0548 20.369C21.407 20.2934 19.3417 19.8726 17.9656 18.4547C16.4357 16.8782 16.0164 14.3305 15.9831 10.7592C15.9817 10.6179 15.9811 6.82757 15.9809 6H9.66675C8.0099 6 6.66675 7.34315 6.66675 9V39C6.66675 40.6569 8.0099 42 9.66675 42ZM25.6974 24.4664C28.0927 23.3089 29.9366 24.2451 31.6767 25.1287C33.2765 25.941 34.7886 26.7088 36.5607 25.7637V19.3824C36.5607 17.3524 35.87 15.9164 34.9121 14.9873C33.9425 14.0468 32.6371 13.5652 31.3132 13.5652C29.9894 13.5652 28.684 14.0468 27.7144 14.9873C26.7565 15.9164 26.0658 17.3524 26.0658 19.3824C26.0658 21.3933 25.9425 23.072 25.6974 24.4664Z" fill="#5D5D5D"/>
</svg>
