<svg width="98" height="98" viewBox="0 0 98 98" fill="none" xmlns="http://www.w3.org/2000/svg">
<path fill-rule="evenodd" clip-rule="evenodd" d="M16.3333 87.7917C16.3333 86.6641 17.2473 85.75 18.3749 85.75H79.6249C80.7525 85.75 81.6666 86.6641 81.6666 87.7917C81.6666 88.9193 80.7525 89.8333 79.6249 89.8333H18.3749C17.2473 89.8333 16.3333 88.9193 16.3333 87.7917Z" fill="#154C72"/>
<path fill-rule="evenodd" clip-rule="evenodd" d="M38.7917 16.3333H20.4167V12.25H38.7917V16.3333Z" fill="#154C72"/>
<path fill-rule="evenodd" clip-rule="evenodd" d="M77.5833 16.3333H59.2083V12.25H77.5833V16.3333Z" fill="#154C72"/>
<path fill-rule="evenodd" clip-rule="evenodd" d="M38.7917 22.4583H24.5V18.375H38.7917V22.4583Z" fill="#154C72"/>
<path fill-rule="evenodd" clip-rule="evenodd" d="M73.4999 22.4583H59.2083V18.375H73.4999V22.4583Z" fill="#154C72"/>
<path fill-rule="evenodd" clip-rule="evenodd" d="M65.3334 77.5833H32.6667V73.5H65.3334V77.5833Z" fill="#154C72"/>
<path fill-rule="evenodd" clip-rule="evenodd" d="M59.2083 8.16667H38.7916C36.5364 8.16667 34.7083 9.99484 34.7083 12.25V32.6667C34.7083 34.9219 36.5364 36.75 38.7916 36.75H59.2083C61.4635 36.75 63.2916 34.9219 63.2916 32.6667V12.25C63.2916 9.99484 61.4635 8.16667 59.2083 8.16667ZM51.0416 14.2917V20.4167H57.1666V24.5H51.0416V30.625H46.9583V24.5H40.8333V20.4167H46.9583V14.2917H51.0416Z" fill="#154C72"/>
<path fill-rule="evenodd" clip-rule="evenodd" d="M53.0833 12.25V18.375H59.2083V26.5417H53.0833V32.6667H44.9166V26.5417H38.7916V18.375H44.9166V12.25H53.0833ZM46.9583 20.4167H40.8333V24.5H46.9583V30.625H51.0416V24.5H57.1666V20.4167H51.0416V14.2917H46.9583V20.4167ZM59.2083 10.2083H38.7916C37.664 10.2083 36.7499 11.1224 36.7499 12.25V32.6667C36.7499 33.7943 37.664 34.7083 38.7916 34.7083H59.2083C60.3359 34.7083 61.2499 33.7943 61.2499 32.6667V12.25C61.2499 11.1224 60.3359 10.2083 59.2083 10.2083ZM38.7916 8.16667H59.2083C61.4635 8.16667 63.2916 9.99484 63.2916 12.25V32.6667C63.2916 34.9219 61.4635 36.75 59.2083 36.75H38.7916C36.5364 36.75 34.7083 34.9219 34.7083 32.6667V12.25C34.7083 9.99484 36.5364 8.16667 38.7916 8.16667Z" fill="#154C72"/>
<path d="M32.6667 40.8333H40.8334V46.9583H32.6667V40.8333Z" fill="#154C72"/>
<path d="M32.6667 51.0417H40.8334V57.1667H32.6667V51.0417Z" fill="#154C72"/>
<path d="M32.6667 61.25H40.8334V67.375H32.6667V61.25Z" fill="#154C72"/>
<path d="M44.9167 40.8333H53.0834V46.9583H44.9167V40.8333Z" fill="#154C72"/>
<path d="M44.9167 51.0417H53.0834V57.1667H44.9167V51.0417Z" fill="#154C72"/>
<path d="M44.9167 61.25H53.0834V67.375H44.9167V61.25Z" fill="#154C72"/>
<path d="M57.1667 40.8333H65.3334V46.9583H57.1667V40.8333Z" fill="#154C72"/>
<path d="M57.1667 51.0417H65.3334V57.1667H57.1667V51.0417Z" fill="#154C72"/>
<path d="M57.1667 61.25H65.3334V67.375H57.1667V61.25Z" fill="#154C72"/>
<path fill-rule="evenodd" clip-rule="evenodd" d="M24.5 85.75V14.2917H28.5833V85.75H24.5Z" fill="#154C72"/>
<path fill-rule="evenodd" clip-rule="evenodd" d="M69.4167 85.75V14.2917H73.5001V85.75H69.4167Z" fill="#154C72"/>
<path fill-rule="evenodd" clip-rule="evenodd" d="M46.9583 73.5H34.7083V85.75H46.9583V73.5ZM51.0416 73.5V85.75H63.2916V73.5H51.0416Z" fill="#154C72"/>
<path fill-rule="evenodd" clip-rule="evenodd" d="M59.2083 85.75V77.5833H63.2916V85.75H59.2083Z" fill="#154C72"/>
<path fill-rule="evenodd" clip-rule="evenodd" d="M34.7083 85.75V77.5833H38.7916V85.75H34.7083Z" fill="#154C72"/>
</svg>
