<svg width="89" height="134" viewBox="0 0 89 134" fill="none" xmlns="http://www.w3.org/2000/svg">
<g clip-path="url(#clip0_31210_6612)">
<path d="M44.1821 0C74.7895 0 90.2895 28.5 88.2895 46.867C85.9506 68.3468 77.2895 73 44.2895 133.5C11.7896 73 3.28956 70.5 0.289517 46.867C-2.72666 23.107 18.2306 0 44.1821 0Z" fill="#FBBD06"/>
<path d="M43.7896 74C60.6342 74 74.2895 60.3447 74.2895 43.5C74.2895 26.6553 60.6342 13 43.7896 13C26.9449 13 13.2896 26.6553 13.2896 43.5C13.2896 60.3447 26.9449 74 43.7896 74Z" fill="#FDFDFD"/>
<path d="M43.9999 61L26.6794 31H61.3204L43.9999 61Z" fill="#FBBD06"/>
</g>
<defs>
<clipPath id="clip0_31210_6612">
<rect width="89" height="134" fill="white"/>
</clipPath>
</defs>
</svg>
