<svg width="49" height="48" viewBox="0 0 49 48" fill="none" xmlns="http://www.w3.org/2000/svg">
<path d="M13.3335 20C13.3335 13.9249 18.2584 9 24.3335 9C30.4087 9 35.3335 13.9249 35.3335 20C35.3335 26.0751 30.4087 31 24.3335 31C18.2584 31 13.3335 26.0751 13.3335 20Z" fill="#5D5D5D"/>
<path fill-rule="evenodd" clip-rule="evenodd" d="M31.3336 34.391C36.6615 31.7942 40.3325 26.3258 40.3325 20C40.3325 11.1634 33.1691 4 24.3325 4C15.496 4 8.33252 11.1634 8.33252 20C8.33252 26.3267 12.0046 31.7957 17.3336 34.3921V43.0001C17.3336 43.3689 17.5366 43.7078 17.8618 43.8818C18.1869 44.0558 18.5815 44.0367 18.8883 43.8322L24.3336 40.202L29.7789 43.8322C30.0858 44.0367 30.4803 44.0558 30.8055 43.8818C31.1306 43.7078 31.3336 43.3689 31.3336 43.0001V34.391ZM24.3325 34C32.0645 34 38.3325 27.732 38.3325 20C38.3325 12.268 32.0645 6 24.3325 6C16.6005 6 10.3325 12.268 10.3325 20C10.3325 27.732 16.6005 34 24.3325 34Z" fill="#5D5D5D"/>
</svg>
