<svg width="49" height="48" viewBox="0 0 49 48" fill="none" xmlns="http://www.w3.org/2000/svg">
<path fill-rule="evenodd" clip-rule="evenodd" d="M9.3335 6C7.67665 6 6.3335 7.34315 6.3335 9V39C6.3335 40.6569 7.67665 42 9.3335 42H39.3335C40.9904 42 42.3335 40.6569 42.3335 39V9C42.3335 7.34315 40.9904 6 39.3335 6H9.3335ZM13.3335 13C12.7812 13 12.3335 13.4477 12.3335 14V29.9592C12.3335 30.5115 12.7812 30.9592 13.3335 30.9592H23.3335V33.102H18.795V35.102H29.872V33.102H25.3335V30.9592H35.3335C35.8858 30.9592 36.3335 30.5115 36.3335 29.9592V14C36.3335 13.4477 35.8858 13 35.3335 13H13.3335Z" fill="#5D5D5D"/>
<path d="M14.1797 21.679H19.8375L23.2406 15.694L25.3671 23.0566L27.9693 19.7469H33.4829C34.0377 19.7469 34.4874 20.1918 34.4874 20.7406C34.4874 21.2893 34.0377 21.7342 33.4829 21.7342H28.9519L24.5229 27.3674L22.6315 20.8188L21.0124 23.6663H14.1797V21.679Z" fill="#5D5D5D"/>
</svg>
