<svg width="49" height="48" viewBox="0 0 49 48" fill="none" xmlns="http://www.w3.org/2000/svg">
<path fill-rule="evenodd" clip-rule="evenodd" d="M6.3335 9C6.3335 7.34315 7.67665 6 9.3335 6H39.3335C40.9904 6 42.3335 7.34315 42.3335 9V39C42.3335 40.6569 40.9904 42 39.3335 42H33.3335V34.0652C33.3335 32.1401 34.3315 30.3926 35.5916 28.9372C36.5886 27.7856 37.3628 26.4709 37.8125 25.0637C38.5616 22.7193 38.5016 20.2166 37.6409 17.9054C36.7802 15.5941 35.1617 13.5898 33.0117 12.1724C30.8617 10.7551 28.2876 9.99559 25.649 10C22.9224 10.0195 20.2737 10.8451 18.0887 12.3566C15.9036 13.868 14.2963 15.9864 13.5009 18.4032C13.2442 19.3016 12.959 21.9441 12.959 21.9441C12.5028 23.0804 12.018 24.1902 11.5332 25.3001L10.8488 26.912C10.5934 27.3486 10.4198 27.8221 10.3355 28.3125C10.3169 28.6382 10.429 28.9586 10.6501 29.2123C10.8712 29.466 11.1858 29.6349 11.5332 29.6866C11.6473 29.6866 14.3335 30 14.3335 30V33C14.3335 34 14.9335 36 17.3335 36H19.3335V42H9.3335C7.67665 42 6.3335 40.6569 6.3335 39V9ZM13.3335 28.9C13.3335 26.9 16.3335 23 20.8335 23C22.5447 23 23.6504 23.7795 24.5224 24.3943C25.0902 24.7946 25.5589 25.125 26.0312 25.125C26.9522 25.125 27.6901 24.8376 28.2481 24.4822C28.8237 24.1155 29.6861 24.2052 29.9913 24.8157C30.1901 25.2131 30.079 25.6958 29.7225 25.9609C29.6662 26.0028 29.6106 26.0441 29.5559 26.0847C27.8421 27.3569 26.9149 28.0451 26.9149 30.65V42H24.3335V35.5C24.3335 33.673 23.2648 31.9832 21.4843 31.5739C19.62 31.1453 17.1942 30.9368 15.3336 32V30C18.0183 28.6576 21.1537 29.1172 22.9252 29.5646C23.6111 29.7379 24.2985 29.2022 23.9294 28.5987C23.159 27.339 21.3739 26.5 19.3335 26.5C15.7986 26.5 14.3335 29 14.3335 29L13.3335 28.9Z" fill="#5D5D5D"/>
<path fill-rule="evenodd" clip-rule="evenodd" d="M29.0728 22.6733C29.0703 22.676 29.0678 22.6788 29.0652 22.6815C29.0645 22.6823 29.0652 22.6816 29.0652 22.6815C29.0655 22.6812 29.0662 22.6804 29.0666 22.68L29.0694 22.677L29.0712 22.675L29.0728 22.6733ZM28.3334 22C27.5935 21.3273 27.5937 21.327 27.594 21.3267L27.5959 21.3246L27.5988 21.3215L27.6055 21.3143L27.6234 21.2954C27.6372 21.2811 27.6549 21.2631 27.6765 21.242C27.7195 21.1999 27.7781 21.1453 27.8519 21.0824C27.9991 20.9571 28.2098 20.7965 28.4808 20.6375C29.0235 20.3191 29.8217 20 30.8334 20C32.655 20 34.3334 21.5108 34.3334 24.05C34.3334 26.1829 33.3774 27.6834 32.2836 28.6308C31.7443 29.098 31.1717 29.4321 30.6595 29.6518C30.1708 29.8614 29.6596 30 29.2425 30C28.6902 30 28.2425 29.5523 28.2425 29C28.2425 28.4477 28.6902 28 29.2425 28C29.2422 28 29.2422 28 29.2425 28C29.2446 27.9999 29.2608 27.9993 29.2928 27.9946C29.3283 27.9894 29.3757 27.9802 29.4344 27.9654C29.5525 27.9356 29.7015 27.8865 29.871 27.8138C30.211 27.6679 30.6043 27.4395 30.9741 27.1192C31.6985 26.4916 32.3334 25.5171 32.3334 24.05C32.3334 22.4892 31.4283 22 30.8334 22C30.2542 22 29.8024 22.1809 29.4928 22.3625C29.3377 22.4535 29.2216 22.5429 29.1487 22.6051C29.1124 22.636 29.0876 22.6594 29.0747 22.672L29.0652 22.6815C28.6927 23.0817 28.0664 23.1088 27.6607 22.7399C27.2521 22.3684 27.2225 21.7353 27.594 21.3267L28.3334 22Z" fill="#5D5D5D"/>
</svg>
