<svg width="98" height="98" viewBox="0 0 98 98" fill="none" xmlns="http://www.w3.org/2000/svg">
<path fill-rule="evenodd" clip-rule="evenodd" d="M26.5811 24.4686C26.6985 23.0202 27.0758 21.6441 27.667 20.3853H12.25V25.4518L20.4167 31.6395V85.7814H77.5833V31.7114L86.7708 25.5237V20.3853H49.9163C50.5076 21.6441 50.8849 23.0202 51.0023 24.4686H81.0276L73.5 29.5384V81.6981H24.5V29.6105L17.7138 24.4686H26.5811Z" fill="#106C6C"/>
<path fill-rule="evenodd" clip-rule="evenodd" d="M20.4167 28.0729L15.3125 21.4375H27.0521L33.6875 34.7083H42.875L50.0208 21.4375H83.7083L77.5833 29.6042V83.7083H69.4167V49H53.0833V83.7083H20.4167V28.0729ZM28.5833 49H42.875V63.2917H28.5833V49Z" fill="#106C6C"/>
<path d="M12.25 83.7083C12.25 84.8359 13.1641 85.75 14.2917 85.75H83.7083C84.8359 85.75 85.75 84.8359 85.75 83.7083C85.75 82.5807 84.8359 81.6667 83.7083 81.6667H14.2917C13.1641 81.6667 12.25 82.5807 12.25 83.7083Z" fill="#106C6C"/>
<path fill-rule="evenodd" clip-rule="evenodd" d="M51.0417 24.5C51.0417 31.2655 45.5572 36.75 38.7917 36.75C32.0263 36.75 26.5417 31.2655 26.5417 24.5C26.5417 17.7345 32.0263 12.25 38.7917 12.25C45.5572 12.25 51.0417 17.7345 51.0417 24.5ZM40.8334 18.375V22.4583H44.9167V26.5417H40.8334V30.625H36.7501V26.5417H32.6667V22.4583H36.7501V18.375H40.8334Z" fill="#106C6C"/>
</svg>
